<?xml version="1.0" encoding="utf-8"?>
<!-- Generator: Adobe Illustrator 22.1.0, SVG Export Plug-In . SVG Version: 6.00 Build 0)  -->
<svg version="1.1" xmlns="http://www.w3.org/2000/svg" xmlns:xlink="http://www.w3.org/1999/xlink" x="0px" y="0px"
	 viewBox="0 0 1366 768" style="enable-background:new 0 0 1366 768;" xml:space="preserve">
<style type="text/css">
	.st0{fill:#BA45BA;}
	.st1{font-family:'ArialRoundedMTBold';}
	.st2{font-size:48px;}
	.st3{letter-spacing:-2;}
</style>
<g id="Layer_1">
</g>
<g id="Layer_3">
	<g>
		<g>
			<path class="st0" d="M366.3,500c-14.7,1-29.5,1.9-44.2,2.6c-6.4,0.3-13.5-2.6-21.5-8.4c-8-5.8-17.7-14.9-29.1-27.8
				c-66.2-74.5-132.3-149-198.5-223.5c-11.6-13.1-18.3-24.4-19.9-34.3c-1.6-9.8,1.6-19.4,9.7-28.1c20.2-21.8,41.3-41.8,63.2-60.3
				c9.7-8.1,18.9-13.7,27.6-16.9c8.7-3.2,17.9-3.3,27.6-0.4c8.2,2.4,16.6,7,25.3,13.6c8.6,6.7,16.8,15.1,24.6,25.1
				c7.8,10,14.8,21.3,21.2,33.8c22,42.9,28.5,79,21.3,106.4c33.5,5.6,62.8,37.1,88.9,89.7c12.2,24.3,20.7,46.8,26.2,66.8
				c5.5,20.1,7.1,34.9,4.8,44.5c-1.6,5.8-4.6,9.9-9.1,12.5C380,497.9,373.9,499.4,366.3,500z M116.8,216
				c22,29.1,44.1,58.1,66.1,87.2c10.6-7.3,21.4-14.2,32.4-20.9c8.9-5.4,14.8-11.2,17.5-17.8c2.7-6.6,2.2-15.9-1.4-28.2
				c-2.4-8.8-6.3-18.1-11.8-27.5c-11.8-20.2-23.2-31.5-34.2-33.1c-11-1.6-23.7,3-37.8,14.2C137.2,198.3,126.9,207,116.8,216z
				 M255.4,334c-11.9,5.8-23.7,11.9-35.3,18.2c24.9,32.8,49.8,65.6,74.7,98.5c11-2.6,22.1-5.2,33.2-7.7c20.8-4.4,20-26.7-2.7-67.2
				c-11.7-20.5-23.1-34.4-34.6-40.9C279.3,328.4,267.4,328.1,255.4,334z"/>
			<path class="st0" d="M491.1,443.7c-0.9,18.1-2.7,31.5-5.6,40.6c-2.9,9.1-8,13.9-15.4,14.6c-6.8,0.7-14.7-3.2-23.8-11.1
				c-9.1-8-18.6-18.9-28.3-32.7c-9.8-13.8-18.8-28.9-26.8-45.5c-10.9-22.4-17.5-42.1-19.6-59.8c-2.1-17.6,0.8-31,8.3-39.7
				c1.6-1.9,5.5-6.3,12.1-13.2c6.6-6.9,12.3-13.2,17-18.7c4.7-5.5,9.7-12,15.2-19.4c-8.8-23.7-16.9-40.7-24.3-50.8
				c-7.4-10.1-16.8-13.4-27.7-9.8c-9.4,3.1-15.2,8.8-17.3,16.6c-2.1,7.8-2.2,18.4-0.2,31.7c2,13.3,3.3,22,3.7,26.3
				c0.4,4.3-1.5,7.1-5.7,8.6c-3.8,1.3-8.5-0.5-14.1-5.5c-5.6-4.9-10.6-12-15-21.3c-6.9-14.5-11.4-29.5-13.4-45.3
				c-1.9-15.8,0-30.4,6-43.8c6-13.4,16.8-23.3,32.3-28.9c17.2-6.3,32.7-5.9,45.9,0.6c13.1,6.5,25,19.8,35.4,39.5
				c10.5,19.7,20.9,46.9,31.4,81.2c6.7,21.7,12.3,40.1,17,55.2c4.6,15.1,9.7,32,15.4,50.5c5.4,17.4,11.9,35.3,19.5,53.9
				c7.6,18.6,12.1,30.7,13.7,36.1c2.9,9.5,4.1,18.4,3.9,26.5c-0.2,8.1-1.9,12.3-5.1,12.7c-2.7,0.3-6.8-3.8-12.5-12.3
				C507.3,472.2,500,459.8,491.1,443.7z M443.2,313.1c-3.1,6-8.3,12.7-15.3,20.3c-7,7.5-11.6,12.9-14,16.2
				c-2.4,3.3-3.7,8.9-3.7,16.7c-0.1,7.8,2.7,17.9,8.1,30.5c5.6,13,12.1,23.6,19.3,32.2c7.2,8.6,13.4,12.5,18.7,11.6
				c5.7-0.9,9.4-5.6,11.3-14.1c2-8.6,2-19.2-0.1-32c-2.2-14.1-8.6-37-19.7-68.4C446.2,321.7,444.7,317.4,443.2,313.1z"/>
			<path class="st0" d="M611.2,291.6c6.1,42.2,12.2,84.3,18.4,126.5c2.9,20,3.7,35.1,2.7,45.5c-1.1,10.3-3.6,15.8-7.7,16.4
				c-4,0.6-8.1-4-12.4-13.7c-4.3-9.7-8.5-24.5-12.2-44.5c-9.5-50.6-18.9-101.2-28.4-151.8c-4.5-24-8.3-42.6-11.4-55.7
				c-3.1-13.2-6.9-23.9-11.5-32c-4.5-8.2-10.1-11.9-16.4-11.1c-12.7,1.6-18.7,13.6-17.5,35.5c1.1,21.9,6.6,52.7,16.2,92.4
				c10.3,42.6,20.5,85.3,30.8,127.9c4.7,19.6,7,34.7,6.9,45.1c-0.1,10.4-2.1,15.8-6.1,16.3c-4,0.5-8.6-4.1-14-13.7
				c-5.4-9.6-10.9-24.1-16.4-43.5c-25.2-89.1-50.5-178.2-75.7-267.3c-5-17.6-7.1-31.3-6.1-41.2c1-9.9,4.4-15.5,10.2-16.6
				c5.6-1.1,11.4,2.3,17.3,10.3c5.9,8,10.6,19.6,14.3,34.9c0.7,3,1.5,6,2.2,9c2-20.8,6.2-36.4,12.2-46.9
				c6.1-10.4,14.3-16.3,24.4-17.4c10.5-1.2,20.5,2.8,29.6,11.8c9.1,9,17.5,23,25.1,42c3.8-20,9.2-34.8,16.1-44.4
				c6.9-9.6,15.4-14.5,25.4-14.4c11.6,0,22.2,5.3,31.2,15.6c9,10.3,16,24.9,20.9,43.7c4.3,16.9,7.2,43.4,9,79.4
				c2.9,60.4,5.8,120.8,8.7,181.1c0.9,19.5,0.3,34.2-1.7,44.4c-2,10.1-5,15.5-9.1,16.1c-4,0.6-7.6-3.9-11.1-13.5
				c-3.5-9.6-6.2-24.2-8-43.8c-4.8-52.8-9.7-105.6-14.5-158.3c-1.9-20.2-3.7-36.4-5.5-48.6c-1.8-12.2-4.7-22.4-8.6-30.6
				c-4-8.2-9.2-12.3-15.7-12.1c-5.2,0.2-9.7,4-13.3,11.7c-3.6,7.6-5.8,17.8-6.5,30.5C602.5,222.5,605.3,251,611.2,291.6z"/>
			<path class="st0" d="M786.8,408.8c-8.4,16.6-15.7,29.5-22.3,38.5c-6.6,9-13.3,14.2-20.7,15.3c-6.7,1-12.5-2.7-17.8-11.2
				c-5.3-8.5-9.6-20.6-13-36.2c-3.4-15.6-5.5-32.8-6.1-51.5c-0.8-25.2,1.2-46.8,6.7-64.6c5.5-17.7,13.7-29.4,24.5-35
				c2.3-1.2,7.8-4.1,17-8.2c9.1-4.1,17.1-7.7,23.8-10.9c6.7-3.2,14.2-7,22.4-11.4c1.7-22.6,1.2-39.5-1.6-50.6
				c-2.8-11.1-10.1-17.7-22-19.3c-10.1-1.3-17.9,0.9-23.2,6.7c-5.3,5.8-9.8,14.9-13.4,27.4c-3.7,12.5-6.1,20.8-7.6,24.8
				c-1.4,4-4.4,5.9-9,5.7c-4.1-0.2-7.7-3.6-10.9-10.3c-3.2-6.7-4.9-15.2-5.2-25.5c-0.4-16.1,1.6-31.7,6.4-46.5
				c4.8-14.8,12.7-26.6,24-35c11.2-8.4,25.5-11.2,42.3-8.4c18.8,3.2,33.2,10.7,42.8,21.6c9.6,11,15.2,26.3,16.8,45.7
				c1.6,19.5,0,44.3-4.4,74.9c-2.8,19.3-5.2,35.7-7.2,49.2c-2,13.5-4.2,28.5-6.7,45c-2.2,15.5-3.6,31.7-4.2,48.4
				c-0.7,16.7-1.5,27.3-2.2,32.1c-1.3,8.4-3.8,16.1-7.4,23.4c-3.6,7.2-6.9,11.2-10.1,11.6c-2.7,0.4-4.8-3.3-6.6-11.1
				C790.1,435.8,788.4,424.2,786.8,408.8z M796.4,285.1c-5.5,4.3-13.1,8.7-22.9,13.6c-9.7,4.9-16.3,8.7-20,11.2
				c-3.7,2.5-7.2,7.3-10.5,14.7c-3.3,7.4-5,17.7-5.2,30.9c-0.2,13.6,1.4,25.2,4.6,34.5c3.2,9.3,7.4,13.7,12.7,13.3
				c5.7-0.4,11.2-4.6,16.6-12.5c5.4-7.8,9.9-17.6,13.3-29.4c3.9-13.1,7.3-34.4,10.1-64C795.6,293.2,796,289.2,796.4,285.1z"/>
			<path class="st0" d="M966.5,242.2c-39.4,40-74.5,86.8-104.7,139c19.3,0,38.4,0.4,57.5,1.1c4.6,0.2,7.2,2.8,7.5,7.8
				c0.3,5-1.1,11.2-4.3,18.9c-3,7.3-6.6,13.4-10.6,18.2c-4,4.8-8.1,7.5-12.3,8c-23.8,2.5-47.7,5.2-71.7,8.2c-5,0.6-8.2-2.2-9.7-8.7
				c-1.4-6.5-1.3-15.6,0.5-27.4c1.1-7,3.1-14.1,6.2-21.2c3.1-7.1,9.2-20.1,19.1-38.4c10.5-19.2,20.6-35.9,30-50.5
				c9.4-14.5,18.6-27.7,27.4-39.6c8.8-11.9,16.4-21.6,22.7-29.5c6.2-7.9,11.5-14.5,15.7-20c-19-5.6-38.2-10.6-57.5-15.1
				c-8-1.9-13.8-4.6-17.4-8.5c-3.6-3.8-4.4-12.1-2.3-24.8c1.5-9.3,4.3-16.4,8.6-21.1c4.2-4.7,9.5-6.2,15.6-4.5
				c32,8.8,63.7,19.3,94.9,31.2c8.7,3.3,14.5,8.1,17.5,14.1c3,6,2.3,14.3-2,25c-1.4,3.6-3.3,7.1-5.6,10.6c-2.3,3.5-4.5,6.3-6.5,8.4
				c-2,2.1-4.5,4.6-7.6,7.6C974.6,234.4,970.9,238,966.5,242.2z"/>
			<path class="st0" d="M1093.7,343.5c-11.9,12.7-24.3,23.8-37,34.2c-12.7,10.4-25,19.5-36.7,27.5c-11.8,8.1-22.6,14.8-32.5,19.9
				c-10,5.2-18.7,8.4-26.6,9.2c-7.9,0.8-13.3-1.2-16.7-6.5c-3.4-5.3-4.8-13.6-4.5-25c0.3-11.4,2.4-25.4,6.4-41.7
				c4-16.3,9.9-34.6,18-54.3c8.2-19.8,17.2-37.6,27.5-52.9c10.3-15.2,21.3-27.2,33.1-35.7c11.8-8.5,24.1-13.3,36.8-14.4
				c12.7-1.1,25.1,1.7,36.8,7.9c11.9,6.3,20.9,15,26.7,25.1c5.8,10.2,8.5,21.3,7.9,33.1c-0.6,11.8-4.3,23.7-11,36
				C1115.2,318.5,1105.6,330.7,1093.7,343.5z M1061.6,332.8c15.1-19.9,23.9-36.4,25.7-50.7c1.9-14.2-3-24.5-14.1-29.6
				c-7.2-3.3-15.3-3.2-24,0.4c-8.7,3.6-17.6,10.8-26.5,21.6c-9,10.8-17.4,24.4-25.4,40.2c-8,15.7-13.6,29.8-17.3,41.8
				c-3.6,12-4.9,21.2-4,27.5c1,6.3,4.2,9.5,9.8,9.8c8.6,0.5,19.3-5.1,32.9-15.9C1032.2,367,1046.7,352.4,1061.6,332.8z"/>
			<path class="st0" d="M1199.6,309.3c-1.8,1.4-3.5,2.7-5.3,4.1c16.1-4,30.4-4.6,42.6-2.4c12.2,2.2,23.2,7.5,32.5,15.2
				c9.1,7.5,14.5,15.7,15.9,23.8c1.4,8.1-1.4,15.1-8.4,21c-3.9,3.6-9,6.6-15.3,9.2c-6.4,2.6-14.9,5.4-25.7,8.6
				c-30.5,9.1-61,18.3-91.5,27.4c-9.8,2.9-18.5,5-25.9,6.6c-7.4,1.5-13,2.5-16.7,2.6c-3.8,0.1-4.4-0.8-1.9-3.1
				c2.6-2.2,8.4-5.7,17.7-10c26.3-12.3,52.5-24.6,78.8-36.9c15.6-7.3,26.1-13.7,31.3-19.7c5.3-5.9,3.3-12.3-5.8-18.5
				c-5.9-4-13.8-6.1-23.4-5.9c-9.6,0.2-19.6,2.9-30,7.8c-8.1,4-21.1,12.9-38.9,26.5c-18.2,13.9-36.5,27.8-54.7,41.7
				c-8.9,6.7-16.8,11.7-23.6,15.2c-6.9,3.5-12.2,5.5-16,5.8c-3.7,0.2-4.6-1.5-2.7-5.5c1.9-4,6.8-10.1,14.8-17.9
				c39.5-38.5,79.1-77,118.6-115.5c7.8-7.6,15.1-12.4,22.1-14.1c6.9-1.7,13.1-0.6,18.4,3.1c3.2,2.3,5.2,5.1,6,8.3
				c0.8,3.3,0.1,6.9-1.9,10.8C1208.5,301.3,1204.8,305.3,1199.6,309.3z"/>
		</g>
	</g>
</g>
<g id="Layer_4">
	<text transform="matrix(1 0 0 1 134.7529 566.5781)" class="st0 st1 st2 st3">We Keep the Choices Low to Keep Your Prices Low!!</text>
</g>
</svg>
